# xmcd
#
# Track frame offsets: 
#        150
#        14203
#        26478
#        39961
#        55078
#        68833
#        79681
#        98240
#        115357
#        136177
#        152125
#        166763
#        178900
#
# Disc length: 2609 seconds
#
# Revision: 0
# Processed by: cddbd v1.5.2PL0 Copyright (c) Steve Scherf et al.
# Submitted via: ExactAudioCopyFreeDBPlugin 1.0
#
DISCID=a50a2f0d
DTITLE=Divorcees - You Ain't Gettin' My Country
DYEAR=2006
DGENRE=Country
TTITLE0=You Ain't Gettin' My Country 
TTITLE1=Take, Take, Take
TTITLE2=Hard Luck SOB
TTITLE3=Red Haired, Red Blooded Woman
TTITLE4=Guess You Left The Leavin' Up To Me
TTITLE5=Watcha Gonna Do
TTITLE6=Rather Be In Reno
TTITLE7=Push My Buttons
TTITLE8=Nearly Fell
TTITLE9=Boonies
TTITLE10=Little White Pills
TTITLE11=Don't Take Me Home To Mama
TTITLE12=Hit The Road
EXTD=
EXTT0=
EXTT1=
EXTT2=
EXTT3=
EXTT4=
EXTT5=
EXTT6=
EXTT7=
EXTT8=
EXTT9=
EXTT10=
EXTT11=
EXTT12=
PLAYORDER=
